# Blender v3.6.0 OBJ File: 'Player.blend'
# www.blender.org
mtllib PlayerHead.mtl
o 立方体.003
v -0.658523 0.224019 0.658523
v -0.658523 1.321558 0.658523
v -0.658523 0.224019 -0.658523
v -0.658523 1.321558 -0.658523
v 0.658523 0.224019 0.658523
v 0.658523 1.321558 0.658523
v 0.658523 0.224019 -0.658523
v 0.658523 1.321558 -0.658523
vt 0.375000 0.375000
vt 0.687500 0.000000
vt 0.687500 0.375000
vt 0.375000 0.750000
vt 0.687500 0.375000
vt 0.687500 0.750000
vt 0.687500 0.375000
vt 1.000000 0.000000
vt 1.000000 0.375000
vt 0.687500 0.750000
vt 1.000000 0.375000
vt 1.000000 0.750000
vt 0.000000 0.375000
vt 0.375000 0.000000
vt 0.375000 0.375000
vt 0.000000 0.750000
vt 0.375000 0.375000
vt 0.375000 0.750000
vt 0.375000 0.000000
vt 0.375000 0.375000
vt 0.687500 0.000000
vt 0.687500 0.375000
vt 0.000000 0.000000
vt 0.000000 0.375000
vn -1.0000 0.0000 0.0000
vn 0.0000 0.0000 -1.0000
vn 1.0000 0.0000 0.0000
vn 0.0000 0.0000 1.0000
vn 0.0000 -1.0000 0.0000
vn 0.0000 1.0000 0.0000
usemtl Material
s off
f 2/1/1 3/2/1 1/3/1
f 4/4/2 7/5/2 3/6/2
f 8/7/3 5/8/3 7/9/3
f 6/10/4 1/11/4 5/12/4
f 7/13/5 1/14/5 3/15/5
f 4/16/6 6/17/6 8/18/6
f 2/1/1 4/19/1 3/2/1
f 4/4/2 8/20/2 7/5/2
f 8/7/3 6/21/3 5/8/3
f 6/10/4 2/22/4 1/11/4
f 7/13/5 5/23/5 1/14/5
f 4/16/6 2/24/6 6/17/6
