# Blender v3.6.0 OBJ File: 'Player.blend'
# www.blender.org
mtllib PlayerBody.mtl
o 立方体.004
v -0.501724 0.246148 0.520999
v -0.650817 1.981660 0.650817
v -0.501724 0.246148 -0.520999
v -0.650817 1.981660 -0.650817
v 0.501724 0.246148 0.520999
v 0.650817 1.981660 0.650817
v 0.501724 0.246148 -0.520999
v 0.650817 1.981660 -0.650817
vt 0.000000 0.000000
vt 0.265954 0.395341
vt 0.029463 0.395341
vt 0.000000 0.395341
vt 0.261580 0.790332
vt 0.033838 0.790332
vt 0.295418 0.000000
vt 0.561372 0.395341
vt 0.324881 0.395341
vt 0.295418 0.395341
vt 0.556998 0.790332
vt 0.329256 0.790332
vt 0.590836 0.531909
vt 0.818577 0.295418
vt 0.818577 0.531909
vt 0.590836 0.295418
vt 0.886253 0.000000
vt 0.886253 0.295418
vt 0.295418 0.000000
vt 0.295418 0.395341
vt 0.590836 0.000000
vt 0.590836 0.395341
vt 0.590836 0.295418
vt 0.590836 0.000000
vn -0.9963 -0.0856 0.0000
vn 0.0000 -0.0746 -0.9972
vn 0.9963 -0.0856 0.0000
vn 0.0000 -0.0746 0.9972
vn 0.0000 -1.0000 0.0000
vn 0.0000 1.0000 0.0000
usemtl Material
s off
f 2/1/1 3/2/1 1/3/1
f 4/4/2 7/5/2 3/6/2
f 8/7/3 5/8/3 7/9/3
f 6/10/4 1/11/4 5/12/4
f 7/13/5 1/14/5 3/15/5
f 4/16/6 6/17/6 8/18/6
f 2/1/1 4/19/1 3/2/1
f 4/4/2 8/20/2 7/5/2
f 8/7/3 6/21/3 5/8/3
f 6/10/4 2/22/4 1/11/4
f 7/13/5 5/23/5 1/14/5
f 4/16/6 2/24/6 6/17/6
